HIERARCHY
ROOT Hips
{
  OFFSET 1.44925e-005 102.336 -0.101585
  CHANNELS 6 Xposition Yposition Zposition Zrotation Xrotation Yrotation
  JOINT LeftUpLeg
  {
    OFFSET 8.9458 -8.66707 0.101652
    CHANNELS 3 Zrotation Xrotation Yrotation
    JOINT LeftLeg
    {
      OFFSET 0 -44.4227 1.3727
      CHANNELS 3 Zrotation Xrotation Yrotation
      JOINT LeftFoot
      {
        OFFSET -0.253549 -42.0924 -1.46059
        CHANNELS 3 Zrotation Xrotation Yrotation
        JOINT LeftToes
        {
          OFFSET -0.04 -4.41509 8.4991
          CHANNELS 3 Zrotation Xrotation Yrotation
          End Site
          {
            OFFSET 0.08 -0.047448 9.77979
          }
        }
      }
    }
  }
  JOINT Spine
  {
    OFFSET 0 11.8905 0
    CHANNELS 3 Zrotation Xrotation Yrotation
    JOINT Spine1
    {
      OFFSET 0 25.6574 0.127663
      CHANNELS 3 Zrotation Xrotation Yrotation
      JOINT RightShoulder
      {
        OFFSET -8.99 -0.362252 -0.22
        CHANNELS 3 Zrotation Xrotation Yrotation
        JOINT RightArm
        {
          OFFSET -10.2827 -0.00338 0.322123
          CHANNELS 3 Zrotation Xrotation Yrotation
          JOINT RightForeArm
          {
            OFFSET -26.364 0.099144 -1.42434
            CHANNELS 3 Zrotation Xrotation Yrotation
            JOINT RightHand
            {
              OFFSET -22.0324 0.085362 1.02216
              CHANNELS 3 Zrotation Xrotation Yrotation
              End Site
              {
                OFFSET -13.3284 -0.6 1.50291
              }
            }
          }
        }
      }
      JOINT LeftShoulder1
      {
        OFFSET 8.99 -0.362252 -0.22
        CHANNELS 3 Zrotation Xrotation Yrotation
        JOINT LeftArm
        {
          OFFSET 10.2827 -0.00337999 0.322123
          CHANNELS 3 Zrotation Xrotation Yrotation
          JOINT LeftForeArm
          {
            OFFSET 26.2597 0.099144 -1.42434
            CHANNELS 3 Zrotation Xrotation Yrotation
            JOINT LeftHand
            {
              OFFSET 22.0902 0.085362 1.02216
              CHANNELS 3 Zrotation Xrotation Yrotation
              End Site
              {
                OFFSET 13.419 -0.6 1.50291
              }
            }
          }
        }
      }
      JOINT Head
      {
        OFFSET 0 8.73416 0.011341
        CHANNELS 3 Zrotation Xrotation Yrotation
        End Site
        {
          OFFSET -0.29 12.7742 2.51395
        }
      }
    }
  }
  JOINT RightUpLeg
  {
    OFFSET -8.9458 -8.66707 0.101652
    CHANNELS 3 Zrotation Xrotation Yrotation
    JOINT RightLeg
    {
      OFFSET 0 -44.4227 1.3727
      CHANNELS 3 Zrotation Xrotation Yrotation
      JOINT RightFoot
      {
        OFFSET 0.253549 -42.0924 -1.46059
        CHANNELS 3 Zrotation Xrotation Yrotation
        JOINT RightToes
        {
          OFFSET 0.04 -4.41509 8.4991
          CHANNELS 3 Zrotation Xrotation Yrotation
          End Site
          {
            OFFSET -0.08 -0.137448 9.77979
          }
        }
      }
    }
  }
}
MOTION
Frames:	8
Frame Time:	0.0333333
-148.898 101.872 -0.78113 -2.13724 0.106135 -91.9787 -1.54104 0.446887 1.64475 -0.272924 9.00795 18.9435 -0.367151 -12.0205 0.0459993 -1.31606e-009 8.75235e-006 -1.47729e-008 -1.41087 6.02756 -0.63905 1.41915 -4.76687 -0.825469 37.2896 1.77895 0.0874571 41.8425 -17.9812 5.91462 9.40339 42.5304 5.81928 -7.26962 9.55759 0.660466 -44.7067 3.58758 -3.46219 -29.1406 -13.0261 1.35934 -6.2872 40.1212 -11.8725 5.82328 9.61819 -0.917488 0.30237 -4.56864 -2.84041 1.26095 0.400436 -2.77116 0.528145 9.40942 -14.4652 0.238775 -11.9825 -0.190289 0.0462048 0.000530889 0.662642 
-148.88 101.872 -0.781767 -2.18348 0.115174 -91.9941 -1.54309 0.469507 1.65522 -0.26552 9.00394 19.0093 -0.328468 -12.0103 0.0459975 -1.31606e-009 8.75235e-006 -1.47729e-008 -1.39618 6.14253 -0.639187 1.40942 -4.85133 -0.82061 37.2741 1.77895 0.0874571 41.8674 -18.0007 5.88027 9.36182 42.5461 5.86792 -7.21354 9.56332 0.608445 -44.7114 3.58758 -3.46219 -29.1342 -12.9795 1.38772 -6.33998 39.964 -11.8434 5.82328 9.61819 -0.917488 0.329976 -4.54525 -2.81487 1.26032 0.425438 -2.78963 0.544542 9.43848 -14.4369 0.258322 -11.9951 -0.190298 0.0462048 0.000530889 0.662642 
-148.853 101.872 -0.786586 -2.23486 0.125114 -92.0235 -1.54418 0.494505 1.66371 -0.251871 9.00376 19.0823 -0.302855 -11.9954 0.045995 -1.31606e-009 8.75235e-006 -1.47729e-008 -1.34164 6.20475 -0.639262 1.34737 -4.85804 -0.805521 37.2489 1.77895 0.0874571 41.9299 -18.0798 5.87321 9.31474 42.6245 5.89771 -7.17211 9.56968 0.529378 -44.7358 3.58758 -3.46219 -29.1178 -12.9971 1.37243 -6.43488 39.8161 -11.7597 5.82328 9.61819 -0.917488 0.397776 -4.52595 -2.8133 1.25995 0.45393 -2.80467 0.563215 9.45704 -14.3936 0.254739 -12.0008 -0.190302 0.0462048 0.000530889 0.662642 
-148.828 101.873 -0.801121 -2.23801 0.134786 -92.0314 -1.522 0.472853 1.67488 -0.251242 9.03211 19.0668 -0.32821 -11.9909 0.0459942 -1.31606e-009 8.75235e-006 -1.47729e-008 -1.29879 6.12209 -0.639021 1.30129 -4.73896 -0.793644 37.2357 1.77895 0.0874571 41.9914 -18.2021 5.9041 9.285 42.7284 5.88883 -7.14159 9.57529 0.45301 -44.7914 3.58758 -3.46219 -29.0653 -13.0453 1.29757 -6.50521 39.7734 -11.6834 5.82328 9.61819 -0.917488 0.441147 -4.54016 -2.85673 1.28381 0.438321 -2.78174 0.55905 9.4586 -14.4134 0.232497 -11.975 -0.190284 0.0462048 0.000530889 0.662642 
-148.805 101.879 -0.82417 -2.21904 0.147371 -92.0084 -1.48041 0.424348 1.69291 -0.26172 9.07377 18.9995 -0.366388 -11.9892 0.0459939 -1.31606e-009 8.75235e-006 -1.47729e-008 -1.32119 6.03656 -0.640824 1.33932 -4.64243 -0.800873 37.2656 1.77895 0.0874571 41.9835 -18.2843 5.91525 9.23251 42.8034 5.92471 -7.04819 9.58522 0.352853 -44.8499 3.58754 -3.46219 -29.0133 -12.9738 1.25141 -6.48593 39.6873 -11.7258 5.82328 9.61819 -0.917488 0.436465 -4.55288 -2.86358 1.33095 0.403002 -2.73668 0.538493 9.45623 -14.4991 0.252629 -11.9307 -0.190253 0.0462048 0.000530889 0.662642 
-148.784 101.884 -0.844848 -2.23011 0.158931 -91.9849 -1.45827 0.425383 1.69783 -0.250486 9.0635 18.9742 -0.379904 -11.9636 0.0459896 -1.31606e-009 8.75235e-006 -1.47729e-008 -1.38237 6.07045 -0.650546 1.40673 -4.65526 -0.822327 37.3444 1.77895 0.0874571 41.8827 -18.2358 5.88413 9.15939 42.8203 6.02721 -6.90367 9.59811 0.240877 -44.8553 3.58676 -3.46218 -29.0259 -12.8009 1.26682 -6.42329 39.4677 -11.8481 5.82328 9.61819 -0.917488 0.429903 -4.53979 -2.79158 1.36854 0.417962 -2.70662 0.527386 9.42376 -14.5683 0.300999 -11.8924 -0.190226 0.0462048 0.000530889 0.662642 
-148.765 101.89 -0.860309 -2.26598 0.160564 -91.988 -1.47419 0.492518 1.67371 -0.203068 8.97619 19.0064 -0.387862 -11.9053 0.0459797 -1.31606e-009 8.75235e-006 -1.47729e-008 -1.44567 6.14937 -0.6586 1.44206 -4.69061 -0.841022 37.4173 1.77895 0.0874571 41.7576 -18.0754 5.85794 9.14039 42.7863 6.08885 -6.78846 9.60671 0.181058 -44.8145 3.58649 -3.46218 -29.1027 -12.6753 1.29792 -6.36726 39.2277 -11.9624 5.82328 9.61819 -0.917488 0.44665 -4.53296 -2.71556 1.37946 0.487374 -2.692 0.530085 9.33887 -14.5752 0.292705 -11.8615 -0.190205 0.0462048 0.000530889 0.662642 
-148.748 101.897 -0.878745 -2.27929 0.148195 -92.0109 -1.50227 0.549799 1.63924 -0.155058 8.87553 19.0458 -0.419895 -11.8389 0.0459685 -1.31606e-009 8.75235e-006 -1.47729e-008 -1.54096 6.14419 -0.655237 1.50721 -4.65237 -0.853904 37.4181 1.77895 0.0874571 41.7033 -17.9535 5.88276 9.20567 42.7548 6.02856 -6.72126 9.61018 0.177564 -44.8095 3.58892 -3.46229 -29.1746 -12.6153 1.35183 -6.20571 39.1048 -12.169 5.82328 9.61819 -0.917488 0.453179 -4.54342 -2.69719 1.37896 0.534842 -2.67063 0.52754 9.24723 -14.5591 0.2253 -11.8297 -0.190182 0.0462048 0.000530889 0.662642 
